<svg width="152" height="52" viewBox="0 0 152 52" fill="none" xmlns="http://www.w3.org/2000/svg">
<rect width="50.209" height="50.209" transform="translate(0 0.973877)" fill="white"/>
<circle cx="25.1045" cy="26.0784" r="25.1045" fill="#0040FF"/>
<path d="M32.8312 37.3339C31.0063 36.9558 29.4949 36.2916 28.2029 34.999C27.2043 34.0003 26.5794 32.8038 26.1811 31.473C26.104 31.2158 26.0849 30.9382 26.0706 30.6681C26.0672 30.604 26.179 30.4914 26.2554 30.4723C27.0563 30.2738 27.8523 30.0098 28.6668 29.9205C29.7364 29.8038 30.5174 30.3406 31.0597 31.2656C31.6082 32.2002 32.4356 32.7534 33.4895 33.0269C34.186 33.2077 34.8865 33.2595 35.5796 33.1742C36.6028 33.0487 37.6593 32.664 38.0073 31.666C38.3552 30.6681 38.081 29.8342 37.2324 29.2069C36.5577 28.7083 35.7399 28.6387 34.9527 28.49C33.3421 28.1858 31.6996 27.9886 30.2282 27.1933C28.8271 26.4361 27.7916 25.3624 27.2152 23.831C26.8018 22.7335 26.7404 21.6059 26.9267 20.5145C27.2282 18.7518 28.1429 17.2914 29.6313 16.2334C30.9745 15.2798 32.452 14.7586 34.1089 14.6604C35.2405 14.5928 36.3626 14.6495 37.4363 14.9291C39.4705 15.4598 41.096 16.6079 42.0585 18.5376C42.317 19.0561 42.6072 20.0309 42.6369 20.1884C42.6667 20.3459 42.5583 20.4582 42.4399 20.4822C41.4555 20.6816 40.6001 21.1523 39.5885 21.168C38.877 21.1789 38.2665 20.8835 37.8381 20.3337C36.8736 19.0963 35.5659 18.7641 34.1109 18.9169C33.3053 19.0015 32.5645 19.3419 32.0372 20.0254C31.1341 21.1959 31.6334 22.8208 33.0584 23.2185C33.8947 23.4518 34.7521 23.6168 35.6068 23.773C37.3722 24.0957 39.1014 24.4784 40.5871 25.5889C41.6635 26.3938 42.3955 27.4313 42.8136 28.6803C43.0503 29.3877 43.1151 30.1415 43.068 30.8993C42.9296 33.1197 41.8559 34.7964 40.0769 36.057C39.2958 36.6108 38.4903 36.9301 37.4861 37.1879C36.4819 37.4458 34.6562 37.7121 32.8312 37.3339Z" fill="white"/>
<path fill-rule="evenodd" clip-rule="evenodd" d="M9.32716 15.2983C9.32822 15.1719 9.43118 15.0705 9.55761 15.0706C9.75478 15.0707 10.0326 15.0708 10.1923 15.0704C12.5678 15.0684 14.9432 15.0704 17.3186 15.0704C18.4165 15.0704 19.2029 15.0888 20.134 15.3105C21.1716 15.5568 22.1075 16.0268 22.9329 16.711C23.9786 17.5773 24.6614 18.6912 25.0004 19.9825C25.3067 21.1489 25.3626 22.3372 25.0884 23.5467C24.8005 24.8147 24.2275 25.8932 23.2985 26.7861C22.7043 27.3571 22.0065 27.7759 21.248 28.0958C20.9328 28.2282 20.8919 28.3455 21.0413 28.6429C21.4048 29.3666 21.7678 30.0905 22.1309 30.8144C22.7358 32.0207 23.3408 33.227 23.9479 34.4322C24.1738 34.8809 24.4047 35.3273 24.6355 35.7737C24.7998 36.0914 24.9641 36.4091 25.1266 36.7276C25.1729 36.8184 25.2132 36.8842 25.2565 36.9865C25.2623 37.0002 25.2698 37.0198 25.2778 37.0414C25.3063 37.1184 25.2668 37.2066 25.1878 37.2292C25.1144 37.2502 25.069 37.2518 25.0045 37.2521C24.94 37.2524 24.3976 37.2563 24.0941 37.259C23.2269 37.2667 22.9175 37.2744 22.051 37.2521C21.025 37.2447 19.9626 36.3242 19.5175 35.3874C19.0724 34.4506 16.5029 28.9787 16.5029 28.9787C16.5029 28.9787 15.7672 28.9796 15.2185 28.9793C14.6763 28.979 14.144 28.9787 13.7199 28.9784C13.6073 28.9783 13.5162 29.0682 13.5162 29.1807C13.5167 31.6304 13.5113 36 13.51 37.0252C13.5098 37.1488 13.4125 37.2491 13.2891 37.2546L13.1431 37.2611C12.4942 37.2621 11.9295 37.2831 11.2686 37.2378C10.1278 37.1596 9.32971 36.8516 9.32971 35.3889C9.31885 33.9324 9.32371 31.9898 9.32971 30.5334C9.33044 30.3551 9.329 26.5353 9.32971 22.8765C9.33019 20.369 9.32926 17.9371 9.32971 16.8047C9.31061 16.4969 9.34102 16.1859 9.32971 15.8682C9.32481 15.7305 9.32563 15.4816 9.32716 15.2983ZM14.0403 24.7524C13.8653 24.7518 13.6904 24.7511 13.5154 24.7506C13.5155 22.7823 13.5161 20.8313 13.5175 19.2757C14.3438 19.2753 15.17 19.2719 15.9963 19.2685C16.3698 19.267 16.7434 19.2655 17.117 19.2642C17.7964 19.2622 18.4505 19.3959 19.0474 19.709C19.9233 20.1687 20.2623 20.9498 20.3353 21.9136C20.4431 23.3366 19.2937 24.6469 17.8155 24.709C16.5585 24.762 15.2992 24.7572 14.0403 24.7524Z" fill="white"/>
<path d="M60.2297 18.4767V24.5093H56.9083V8.2868H63.551C67.279 8.2868 69.6062 10.0491 69.6062 13.3931C69.6062 15.8558 68.2731 17.5052 65.9911 18.1604L70.0355 24.5093H66.2397L62.4891 18.4767H60.2297ZM60.2297 15.6977H63.3702C65.3133 15.6977 66.3075 14.8617 66.3075 13.4157C66.3075 11.947 65.3133 11.1111 63.3702 11.1111H60.2297V15.6977Z" fill="black"/>
<path d="M76.6428 24.7579C73.1407 24.7579 70.7458 22.2499 70.7458 18.5671C70.7458 15.065 73.1633 12.3989 76.5299 12.3989C80.0545 12.3989 81.9524 15.0198 81.9524 18.3412V19.2675H73.7734C73.9993 21.075 75.1064 22.1596 76.6654 22.1596C77.8855 22.1596 78.857 21.5721 79.2186 20.4198L81.8847 21.3688C81.0261 23.5378 79.0152 24.7579 76.6428 24.7579ZM76.5073 14.9295C75.242 14.9295 74.2705 15.6751 73.8864 17.1211H78.8119C78.7893 15.9462 78.0437 14.9295 76.5073 14.9295Z" fill="black"/>
<path d="M82.6716 22.4985L84.6372 20.4876C85.4506 21.5947 86.8966 22.2951 88.2297 22.2951C89.2916 22.2951 90.218 21.9336 90.218 21.075C90.218 20.1713 89.3368 20.0583 87.4389 19.6968C85.5184 19.3127 83.3946 18.8156 83.3946 16.2625C83.3946 13.9805 85.4054 12.3989 88.2523 12.3989C90.3535 12.3989 92.2288 13.2575 93.1552 14.455L91.3477 16.4433C90.5569 15.4265 89.4046 14.8617 88.1619 14.8617C87.1678 14.8617 86.5126 15.291 86.5126 15.9462C86.5126 16.7144 87.3033 16.85 88.772 17.1437C90.8506 17.573 93.3134 18.0474 93.3134 20.7361C93.3134 23.2215 91.0088 24.7579 88.1619 24.7579C86.0155 24.7579 83.7561 23.9671 82.6716 22.4985Z" fill="black"/>
<path d="M100.362 24.7579C96.8601 24.7579 94.4651 22.2499 94.4651 18.5671C94.4651 15.065 96.8827 12.3989 100.249 12.3989C103.774 12.3989 105.672 15.0198 105.672 18.3412V19.2675H97.4927C97.7187 21.075 98.8258 22.1596 100.385 22.1596C101.605 22.1596 102.576 21.5721 102.938 20.4198L105.604 21.3688C104.745 23.5378 102.735 24.7579 100.362 24.7579ZM100.227 14.9295C98.9613 14.9295 97.9898 15.6751 97.6057 17.1211H102.531C102.509 15.9462 101.763 14.9295 100.227 14.9295Z" fill="black"/>
<path d="M110.951 24.7127C108.624 24.7127 106.907 23.3119 106.907 21.2106C106.907 18.8382 108.805 17.8441 111.2 17.4148L114.16 16.85V16.6692C114.16 15.6525 113.64 15.0198 112.329 15.0198C111.155 15.0198 110.545 15.5395 110.273 16.6014L107.268 16.0366C107.811 14.0257 109.618 12.3989 112.442 12.3989C115.447 12.3989 117.255 13.7772 117.255 16.5336V21.3914C117.255 22.024 117.526 22.2273 118.226 22.137V24.5093C116.216 24.8031 114.996 24.3964 114.476 23.4022C113.708 24.2382 112.51 24.7127 110.951 24.7127ZM114.16 20.2843V19.0642L111.832 19.5386C110.793 19.742 110.025 20.0809 110.025 21.0299C110.025 21.8432 110.635 22.3177 111.584 22.3177C112.917 22.3177 114.16 21.6173 114.16 20.2843Z" fill="black"/>
<path d="M127.105 12.6023V15.6977C126.743 15.6525 126.472 15.6299 126.088 15.6299C124.439 15.6299 123.173 16.6466 123.173 18.4767V24.5093H120.01V12.6249H123.173V14.2968C123.693 13.2575 124.868 12.5571 126.337 12.5571C126.653 12.5571 126.879 12.5797 127.105 12.6023Z" fill="black"/>
<path d="M130.769 18.5671C130.769 20.8039 131.876 22.0918 133.548 22.0918C134.858 22.0918 135.649 21.188 135.943 19.9679L138.677 21.188C138.134 23.1311 136.282 24.7579 133.525 24.7579C130.068 24.7579 127.628 22.2499 127.628 18.5671C127.628 14.9069 130.068 12.3989 133.525 12.3989C136.259 12.3989 138.067 13.9805 138.631 15.901L135.943 17.1663C135.649 15.9462 134.858 15.0424 133.548 15.0424C131.876 15.0424 130.769 16.3529 130.769 18.5671Z" fill="black"/>
<path d="M140.199 24.5093V8.2868H143.362V13.8449C144.018 13.0767 145.102 12.3989 146.616 12.3989C149.101 12.3989 150.615 14.0935 150.615 16.6692V24.5093H147.452V17.573C147.452 16.2399 146.91 15.291 145.554 15.291C144.447 15.291 143.362 16.0818 143.362 17.6407V24.5093H140.199Z" fill="black"/>
<path d="M55.2816 41.6331L57.5636 39.4189C58.761 41.1135 60.5008 42.0624 62.2857 42.0624C63.9803 42.0624 65.2229 41.3168 65.2229 39.9386C65.2229 38.4474 63.6865 38.244 61.2464 37.7018C58.8288 37.1369 56.2079 36.3687 56.2079 33.1604C56.2079 30.065 58.874 28.1219 62.2405 28.1219C65.0422 28.1219 67.2338 29.3646 68.3635 30.9913L66.1719 33.1378C65.2229 31.8047 63.9577 30.901 62.1502 30.901C60.5686 30.901 59.4841 31.6691 59.4841 32.844C59.4841 34.1093 60.6589 34.3578 62.7828 34.8323C65.3585 35.3972 68.5217 36.0524 68.5217 39.5997C68.5217 42.8758 65.6296 44.8415 62.1727 44.8415C59.4389 44.8415 56.592 43.5988 55.2816 41.6331Z" fill="black"/>
<path d="M81.4335 38.6507C81.4335 42.3561 79.0385 44.8415 75.6042 44.8415C72.1699 44.8415 69.7749 42.3561 69.7749 38.6507C69.7749 34.9679 72.1699 32.4825 75.6042 32.4825C79.0385 32.4825 81.4335 34.9679 81.4335 38.6507ZM72.9155 38.6507C72.9155 40.9101 73.9548 42.2206 75.6042 42.2206C77.2536 42.2206 78.2703 40.9101 78.2703 38.6507C78.2703 36.4139 77.2536 35.1034 75.6042 35.1034C73.9548 35.1034 72.9155 36.4139 72.9155 38.6507Z" fill="black"/>
<path d="M86.5242 28.3704V44.593H83.361V28.3704H86.5242Z" fill="black"/>
<path d="M99.4454 32.7085V44.593H96.2822V43.3729C95.627 44.1411 94.5876 44.8415 93.0738 44.8415C90.6111 44.8415 89.0295 43.1469 89.0295 40.5712V32.7085H92.1927V39.8708C92.1927 41.1812 92.7801 42.0398 94.0906 42.0398C95.1977 42.0398 96.2822 41.2264 96.2822 39.69V32.7085H99.4454Z" fill="black"/>
<path d="M102.388 41.4976V35.352H100.806V32.7085H102.388V29.3194H105.506V32.7085H107.924V35.352H105.506V40.8423C105.506 41.8591 106.071 41.9946 106.997 41.9946C107.449 41.9946 107.675 41.972 108.082 41.9269V44.5478C107.517 44.6607 106.839 44.7285 106.048 44.7285C103.653 44.7285 102.388 43.9377 102.388 41.4976Z" fill="black"/>
<path d="M109.926 31.3076V28.3704H113.157V31.3076H109.926ZM113.134 32.7085V44.593H109.971V32.7085H113.134Z" fill="black"/>
<path d="M126.688 38.6507C126.688 42.3561 124.293 44.8415 120.859 44.8415C117.424 44.8415 115.029 42.3561 115.029 38.6507C115.029 34.9679 117.424 32.4825 120.859 32.4825C124.293 32.4825 126.688 34.9679 126.688 38.6507ZM118.17 38.6507C118.17 40.9101 119.209 42.2206 120.859 42.2206C122.508 42.2206 123.525 40.9101 123.525 38.6507C123.525 36.4139 122.508 35.1034 120.859 35.1034C119.209 35.1034 118.17 36.4139 118.17 38.6507Z" fill="black"/>
<path d="M128.615 44.593V32.7085H131.779V33.9286C132.434 33.1604 133.518 32.4825 135.032 32.4825C137.517 32.4825 139.031 34.1771 139.031 36.7528V44.593H135.868V37.6566C135.868 36.3235 135.326 35.3746 133.97 35.3746C132.863 35.3746 131.779 36.1654 131.779 37.7244V44.593H128.615Z" fill="black"/>
<path d="M140.392 42.5821L142.358 40.5712C143.171 41.6783 144.617 42.3787 145.95 42.3787C147.012 42.3787 147.939 42.0172 147.939 41.1587C147.939 40.2549 147.058 40.1419 145.16 39.7804C143.239 39.3963 141.115 38.8992 141.115 36.3461C141.115 34.0641 143.126 32.4825 145.973 32.4825C148.074 32.4825 149.95 33.3411 150.876 34.5386L149.068 36.5269C148.278 35.5101 147.125 34.9453 145.883 34.9453C144.889 34.9453 144.233 35.3746 144.233 36.0298C144.233 36.798 145.024 36.9336 146.493 37.2273C148.571 37.6566 151.034 38.1311 151.034 40.8197C151.034 43.3051 148.73 44.8415 145.883 44.8415C143.736 44.8415 141.477 44.0507 140.392 42.5821Z" fill="black"/>
</svg>
