<svg xmlns="http://www.w3.org/2000/svg" viewBox="0 0 600 600" preserveAspectRatio="xMidYMid meet">
  <!-- Top-left crown (small) -->
  <g transform="translate(150, 150) scale(0.22) translate(-450, -337.5)">
    <path fill="#ffffff" d="M 629.722656 243.917969 L 721.050781 24.636719 C 731.253906 0.21875 766.710938 3.394531 772.398438 29.320312 L 868.742188 473.070312 C 871.25 484.777344 865.898438 496.820312 855.359375 502.507812 C 787.453125 539.136719 531.375 665.753906 217.757812 673.449219 C 206.214844 673.785156 195.675781 666.425781 191.664062 655.71875 L 37.78125 226.1875 C 28.75 201.601562 56.347656 179.859375 78.089844 194.410156 L 287.335938 334.910156 C 302.558594 345.113281 323.296875 337.417969 328.316406 319.855469 L 390.871094 98.566406 C 396.726562 78.160156 422.652344 72.140625 436.871094 87.863281 L 584.394531 251.78125 C 598.109375 266.332031 622.195312 262.152344 629.722656 243.917969 Z"/>
  </g>
  <!-- Offset (bottom-right) crown — creates brick/diamond pattern when tiled -->
  <g transform="translate(450, 450) scale(0.22) translate(-450, -337.5)">
    <path fill="#ffffff" d="M 629.722656 243.917969 L 721.050781 24.636719 C 731.253906 0.21875 766.710938 3.394531 772.398438 29.320312 L 868.742188 473.070312 C 871.25 484.777344 865.898438 496.820312 855.359375 502.507812 C 787.453125 539.136719 531.375 665.753906 217.757812 673.449219 C 206.214844 673.785156 195.675781 666.425781 191.664062 655.71875 L 37.78125 226.1875 C 28.75 201.601562 56.347656 179.859375 78.089844 194.410156 L 287.335938 334.910156 C 302.558594 345.113281 323.296875 337.417969 328.316406 319.855469 L 390.871094 98.566406 C 396.726562 78.160156 422.652344 72.140625 436.871094 87.863281 L 584.394531 251.78125 C 598.109375 266.332031 622.195312 262.152344 629.722656 243.917969 Z"/>
  </g>
</svg>
